# xmcd
#
# Track frame offsets: 
#        150
#        10857
#        23797
#        37342
#        51172
#        66372
#        86445
#        113677
#        138855
#
# Disc length: 2021 seconds
#
# Revision: 1
# Processed by: cddbd v1.5.2PL0 Copyright (c) Steve Scherf et al.
# Submitted via: ExactAudioCopy v0.95b4
#
DISCID=7207e309
DTITLE=Miles Davis - Miles Davis and Horns
DYEAR=1953
DGENRE=Jazz
TTITLE0=Morpheus
TTITLE1=Down
TTITLE2=Blue Room - (take 2)
TTITLE3=Whispering
TTITLE4=Tasty Pudding
TTITLE5=Willie The Wailer
TTITLE6=Floppy
TTITLE7=For Adults Only
TTITLE8=Blue Room - (take 1)
EXTD=
EXTT0=
EXTT1=
EXTT2=
EXTT3=
EXTT4=
EXTT5=
EXTT6=
EXTT7=
EXTT8=
PLAYORDER=
